#!OML:ASF E:\CV Data\Top Level 1\Subject 1\Session 1\player.ASF
:FULLY-SPECIFIED
:DEGREES
2388
root 6.22316 17.0581 -5.39228 16.1552 -18.9816 -7.12201
lowerback 19.2908 3.35121 -2.80609
upperback 3.33488 3.75955 -0.00936712
thorax -7.35037 1.85405 0.635702
lowerneck -8.08651 -14.5669 -17.9351
upperneck 0.160756 -19.3806 24.2759
head 5.74922 -9.11339 8.53741
rclavicle -8.38871e-014 1.90833e-014
rhumerus -4.19109 31.8879 -94.9877
rradius 82.076
rwrist 0.746944
rhand -25.8925 0.356608
rfingers 7.12502
rthumb 0.649535 -29.6221
lclavicle -8.38871e-014 1.90833e-014
lhumerus -13.646 -18.9954 94.3771
lradius 84.5298
lwrist 75.2475
lhand 12.1711 19.9486
lfingers 7.12502
lthumb 37.1826 45.9656
rfemur -25.2727 -26.4931 34.4164
rtibia 41.6367
rfoot -27.8217 -26.2716
rtoes 0.46985
lfemur -45.557 -6.85206 -4.5267
ltibia 34.5944
lfoot -4.45416 -15.9992
ltoes -0.466506
2389
root 6.22922 17.0777 -5.32254 16.1094 -19.3019 -7.12297
lowerback 18.9676 3.31946 -2.88324
upperback 3.20469 3.71602 -0.010741
thorax -7.32104 1.83797 0.700585
lowerneck -7.75206 -14.8023 -18.1073
upperneck -0.190671 -19.7151 24.5496
head 5.71277 -9.30556 8.61039
rclavicle -1.39149e-014 1.19271e-014
rhumerus -4.49861 31.9983 -94.9372
rradius 82.0162
rwrist -1.61473
rhand -25.1105 -0.418994
rfingers 7.12502
rthumb 1.40484 -30.3941
lclavicle -1.39149e-014 1.19271e-014
lhumerus -14.3071 -18.9402 94.1616
lradius 85.1345
lwrist 75.4238
lhand 12.3697 19.5668
lfingers 7.12502
lthumb 37.3703 45.5346
rfemur -24.6029 -26.1116 34.0386
rtibia 41.0699
rfoot -27.6471 -26.3251
rtoes 0.422041
lfemur -45.134 -6.82372 -4.67632
ltibia 34.5803
lfoot -4.70192 -15.7766
ltoes -0.488814
2390
root 6.23527 17.0965 -5.25146 16.0638 -19.6353 -7.12209
lowerback 18.6382 3.29128 -2.96362
upperback 3.07318 3.67677 -0.0159409
thorax -7.28922 1.824 0.762108
lowerneck -7.46769 -15.0092 -18.2655
upperneck -0.497414 -20.0094 24.7978
head 5.68628 -9.47407 8.67695
rclavicle 3.69739e-014 -1.82882e-014
rhumerus -4.80523 32.1672 -94.8764
rradius 81.9466
rwrist -4.45419
rhand -24.2167 -1.31357
rfingers 7.12502
rthumb 2.26805 -31.2813
lclavicle 3.69739e-014 -1.82882e-014
lhumerus -14.9858 -18.8682 93.9584
lradius 85.725
lwrist 75.6957
lhand 12.5698 19.2807
lfingers 7.12502
lthumb 37.5594 45.1985
rfemur -23.9361 -25.7164 33.6561
rtibia 40.5119
rfoot -27.4775 -26.3811
rtoes 0.368578
lfemur -44.7115 -6.77196 -4.84083
ltibia 34.5796
lfoot -4.96079 -15.5687
ltoes -0.523733
2391
root 6.24145 17.1145 -5.17895 16.0127 -19.9792 -7.11918
lowerback 18.3045 3.26519 -3.04296
upperback 2.94352 3.64068 -0.0246366
thorax -7.2522 1.81145 0.818556
lowerneck -7.22606 -15.1903 -18.4082
upperneck -0.765872 -20.2672 25.0226
head 5.66707 -9.62127 8.73742
rclavicle 4.29375e-014 -2.14687e-014
rhumerus -5.12565 32.3687 -94.8155
rradius 81.876
rwrist -7.62533
rhand -23.2154 -2.30246
rfingers 7.12502
rthumb 3.23504 -32.2577
lclavicle 4.29375e-014 -2.14687e-014
lhumerus -15.6834 -18.7814 93.7701
lradius 86.3057
lwrist 76.0557
lhand 12.7902 19.1571
lfingers 7.12502
lthumb 37.7677 45.0192
rfemur -23.2659 -25.3103 33.2661
rtibia 39.9623
rfoot -27.3133 -26.4376
rtoes 0.31658
lfemur -44.2813 -6.69964 -5.02118
ltibia 34.5862
lfoot -5.22732 -15.3774
ltoes -0.566366
2392
root 6.24781 17.1317 -5.10538 15.9564 -20.33 -7.10992
lowerback 17.97 3.24133 -3.12069
upperback 2.81377 3.60762 -0.0407476
thorax -7.21372 1.80022 0.865231
lowerneck -7.02668 -15.3502 -18.5264
upperneck -0.999013 -20.4955 25.2268
head 5.65467 -9.75053 8.79003
rclavicle 1.59028e-014 -1.51076e-014
rhumerus -5.46257 32.5918 -94.7603
rradius 81.7894
rwrist -11.0215
rhand -22.1606 -3.29155
rfingers 7.12502
rthumb 4.2537 -33.2288
lclavicle 1.59028e-014 -1.51076e-014
lhumerus -16.3932 -18.6901 93.5942
lradius 86.8698
lwrist 76.4806
lhand 13.0269 19.2092
lfingers 7.12502
lthumb 37.9913 45.0108
rfemur -22.5985 -24.8987 32.8686
rtibia 39.4227
rfoot -27.1359 -26.5034
rtoes 0.209781
lfemur -43.8455 -6.61427 -5.21771
ltibia 34.5942
lfoot -5.49734 -15.1971
ltoes -0.605074
2393
root 6.25442 17.1488 -5.03076 15.8921 -20.6834 -7.09281
lowerback 17.6407 3.21764 -3.20068
upperback 2.67946 3.57443 -0.0580014
thorax -7.18233 1.78906 0.91141
lowerneck -6.85887 -15.4882 -18.6353
upperneck -1.19169 -20.6942 25.4089
head 5.64993 -9.86224 8.83737
rclavicle 2.70347e-014 3.18055e-015
rhumerus -5.84325 32.8356 -94.7171
rradius 81.6953
rwrist -14.5268
rhand -21.0684 -4.28232
rfingers 7.12502
rthumb 5.3083 -34.1958
lclavicle 2.70347e-014 3.18055e-015
lhumerus -17.1182 -18.5889 93.4413
lradius 87.4089
lwrist 76.9266
lhand 13.2721 19.3588
lfingers 7.12502
lthumb 38.2228 45.097
rfemur -21.9307 -24.484 32.4615
rtibia 38.8925
rfoot -26.9657 -26.5682
rtoes 0.118379
lfemur -43.3995 -6.54991 -5.41636
ltibia 34.597
lfoot -5.76407 -14.9997
ltoes -0.632405
2394
root 6.26139 17.1657 -4.95521 15.8177 -21.0376 -7.06686
lowerback 17.3193 3.19608 -3.27585
upperback 2.54586 3.54437 -0.0824328
thorax -7.15324 1.77918 0.945927
lowerneck -6.73013 -15.6117 -18.7263
upperneck -1.35003 -20.8731 25.5766
head 5.65429 -9.9606 8.87822
rclavicle 4.21423e-014 -2.3059e-014
rhumerus -6.26935 33.0926 -94.6867
rradius 81.6045
rwrist -18.043
rhand -19.9928 -5.23103
rfingers 7.12502
rthumb 6.34679 -35.1159
lclavicle 4.21423e-014 -2.3059e-014
lhumerus -17.8392 -18.5022 93.3003
lradius 87.9184
lwrist 77.3542
lhand 13.5129 19.6093
lfingers 7.12502
lthumb 38.45 45.2847
rfemur -21.2637 -24.0679 32.0436
rtibia 38.3756
rfoot -26.8012 -26.6307
rtoes 0.0405044
lfemur -42.9415 -6.50335 -5.62079
ltibia 34.5911
lfoot -6.02486 -14.7912
ltoes -0.625164
2395
root 6.26874 17.1824 -4.87861 15.7344 -21.394 -7.035
lowerback 17.0023 3.17754 -3.34797
upperback 2.41296 3.51885 -0.108638
thorax -7.1251 1.77136 0.975439
lowerneck -6.62621 -15.7202 -18.8093
upperneck -1.48229 -21.0311 25.7309
head 5.66374 -10.0464 8.91564
rclavicle 4.25399e-014 -2.8625e-014
rhumerus -6.74708 33.3772 -94.6636
rradius 81.5311
rwrist -21.5476
rhand -18.964 -6.1421
rfingers 7.12502
rthumb 7.33994 -35.9948
lclavicle 4.25399e-014 -2.8625e-014
lhumerus -18.5529 -18.4269 93.1805
lradius 88.3873
lwrist 77.7146
lhand 13.7274 19.7899
lfingers 7.12502
lthumb 38.6525 45.4086
rfemur -20.5997 -23.6482 31.6166
rtibia 37.8768
rfoot -26.6468 -26.6888
rtoes -0.0380468
lfemur -42.47 -6.47557 -5.82877
ltibia 34.5758
lfoot -6.28247 -14.5663
ltoes -0.623151
2396
root 6.27644 17.1988 -4.80095 15.6451 -21.7529 -6.99941
lowerback 16.6918 3.16383 -3.41477
upperback 2.27664 3.50052 -0.13656
thorax -7.10363 1.76693 0.997929
lowerneck -6.55051 -15.8177 -18.8889
upperneck -1.57929 -21.1746 25.8706
head 5.68313 -10.1219 8.94832
rclavicle 6.24184e-014 3.97569e-015
rhumerus -7.28473 33.6918 -94.6554
rradius 81.4832
rwrist -25.002
rhand -18.0486 -6.96844
rfingers 7.12502
rthumb 8.22343 -36.7884
lclavicle 6.24184e-014 3.97569e-015
lhumerus -19.2546 -18.3769 93.0803
lradius 88.8076
lwrist 77.9834
lhand 13.9212 19.9076
lfingers 7.12502
lthumb 38.8352 45.4746
rfemur -19.9441 -23.2221 31.1818
rtibia 37.4053
rfoot -26.5127 -26.7315
rtoes -0.0850276
lfemur -41.9893 -6.45655 -6.04236
ltibia 34.5555
lfoot -6.53821 -14.3356
ltoes -0.613123
2397
root 6.2845 17.2145 -4.72271 15.5552 -22.1086 -6.96323
lowerback 16.38 3.15406 -3.47271
upperback 2.14111 3.48935 -0.164031
thorax -7.07984 1.76573 1.01432
lowerneck -6.49306 -15.9065 -18.9682
upperneck -1.6573 -21.3058 26.0027
head 5.70774 -10.1896 8.97938
rclavicle -3.93594e-014 1.90833e-014
rhumerus -7.87449 34.0408 -94.654
rradius 81.4813
rwrist -28.4176
rhand -17.2729 -7.70899
rfingers 7.12502
rthumb 8.97198 -37.4982
lclavicle -3.93594e-014 1.90833e-014
lhumerus -19.9385 -18.3487 93.0049
lradius 89.1751
lwrist 78.1406
lhand 14.1168 19.9844
lfingers 7.12502
lthumb 39.0197 45.4988
rfemur -19.3105 -22.7895 30.7478
rtibia 36.9718
rfoot -26.3855 -26.7665
rtoes -0.142005
lfemur -41.5098 -6.42655 -6.26593
ltibia 34.5344
lfoot -6.79704 -14.1218
ltoes -0.625541
2398
root 6.29295 17.2294 -4.64368 15.4637 -22.4605 -6.93015
lowerback 16.0728 3.14844 -3.52051
upperback 2.00378 3.48568 -0.188571
thorax -7.06005 1.76797 1.02614
lowerneck -6.45573 -15.9864 -19.0492
upperneck -1.70576 -21.4256 26.1229
head 5.74073 -10.2492 9.00735
rclavicle 7.55382e-014 -3.10104e-014
rhumerus -8.51832 34.4323 -94.664
rradius 81.5296
rwrist -31.8321
rhand -16.6769 -8.32912
rfingers 7.12502
rthumb 9.54709 -38.0928
lclavicle 7.55382e-014 -3.10104e-014
lhumerus -20.6103 -18.3396 92.9579
lradius 89.4914
lwrist 78.1942
lhand 14.3191 20.033
lfingers 7.12502
lthumb 39.2104 45.4925
rfemur -18.7013 -22.353 30.3158
rtibia 36.5894
rfoot -26.2577 -26.7932
rtoes -0.234993
lfemur -41.0293 -6.3755 -6.50202
ltibia 34.5148
lfoot -7.0681 -13.9314
ltoes -0.678184
